Complete name                            : Life Of Pi (2012) TS XviD SLiCK.avi
Format                                   : AVI
Format/Info                              : Audio Video Interleave
File size                                : 821 MiB
Duration                                 : 2h 4mn
Overall bit rate                         : 923 Kbps
Writing library                          : VirtualDub build 32842/release



ID                                       : 0
Format                                   : MPEG-4 Visual
Format profile                           : Advanced Simple@L5
Format settings, BVOP                    : 2
Format settings, QPel                    : No
Format settings, GMC                     : No warppoints
Format settings, Matrix                  : Default (H.263)
Muxing mode                              : Packed bitstream
Codec ID                                 : XVID
Codec ID/Hint                            : XviD
Duration                                 : 2h 4mn
Bit rate                                 : 785 Kbps
Width                                    : 720 pixels
Height                                   : 400 pixels
Display aspect ratio                     : 16:9
Frame rate                               : 25.000 fps
Color space                              : YUV
Chroma subsampling                       : 4:2:0
Bit depth                                : 8 bits
Scan type                                : Progressive
Compression mode                         : Lossy
Bits/(Pixel*Frame)                       : 0.109
Stream size                              : 699 MiB (85%)
Writing library                          : XviD 64



ID                                       : 1
Format                                   : MPEG Audio
Format version                           : Version 1
Format profile                           : Layer 3
Mode                                     : Joint stereo
Mode extension                           : MS Stereo
Codec ID                                 : 55
Codec ID/Hint                            : MP3
Duration                                 : 2h 4mn
Bit rate mode                            : Constant
Bit rate                                 : 128 Kbps
Channel(s)                               : 2 channels
Sampling rate                            : 44.1 KHz
Compression mode                         : Lossy
Stream size                              : 114 MiB (14%)
Alignment                                : Split accross interleaves
Interleave, duration                     : 40 ms (1.00 video frame)
Interleave, preload duration             : 500 ms
Writing library                          : LAME3.98r
Encoding settings                        : -m j -V 4 -q 3 -lowpass 17 -b 128



127 min  -  Adventure | Drama  -   20 December 2012 (UK)

Based on the best-selling novel by Yann Martel, is a magical adventure story centering on Pi Patel, the precocious son of a zoo keeper.

Dwellers in Pondicherry, India, the family decides to move to Canada, hitching a ride on a huge freighter. After a shipwreck, Pi finds

himself adrift in the Pacific Ocean on a 26-foot lifeboat with a zebra, a hyena, an orangutan and a 450-pound Bengal tiger named

Richard Parker, all fighting for survival.



Suraj Sharma ... Pi Patel
Irrfan Khan ... Adult Pi Patel
Ayush Tandon ... Pi Patel (11 / 12 Years)
Gautam Belur ... Pi Patel (5 Years)
Adil Hussain ... Santosh Patel
Tabu              ... Gita Patel
Ayan Khan ... Ravi Patel (7 Years)
Mohd Abbas Khaleeli ... Ravi Patel (13 / 14 Years)
Vibish Sivakumar ... Ravi Patel (18 / 19 Years)
Rafe Spall ... Writer
G?rard Depardieu ... Cook
James Saito ... Older Insurance Investigator
Jun Naito              ... Younger Insurance Investigator
Andrea Di Stefano ... Priest
Shravanthi Sainath ... Anandi
Elie Alouf ... Mamaji
Padmini Ramachandran ... Dance Master
T.M. Karthik ... Science Teacher (as Tim Karthik)


 
http://www.imdb.com/title/tt0454876/
 
http://www.shotpix.com/images/08527721965253769863.png 
http://www.shotpix.com/images/15456760750677021879.png 
http://www.shotpix.com/images/34689432877805421882.png
